<?xml version="1.0" standalone="no"?><!DOCTYPE svg PUBLIC "-//W3C//DTD SVG 1.1//EN" "http://www.w3.org/Graphics/SVG/1.1/DTD/svg11.dtd"><svg t="1554278386910" class="icon" style="" viewBox="0 0 1024 1024" version="1.1" xmlns="http://www.w3.org/2000/svg" p-id="6076" xmlns:xlink="http://www.w3.org/1999/xlink" width="200" height="200"><defs><style type="text/css"></style></defs><path d="M844.1 362.7c-18.3-43.3-44.5-82.2-77.9-115.6s-72.3-59.6-115.6-77.9c-44.9-19-92.5-28.6-141.6-28.6s-96.7 9.6-141.6 28.6c-43.3 18.3-82.2 44.5-115.6 77.9-33.4 33.4-59.6 72.3-77.9 115.6-19 44.9-28.6 92.5-28.6 141.6 0 49.1 9.6 96.7 28.6 141.6 18.3 43.3 44.5 82.2 77.9 115.6 33.4 33.4 72.3 59.6 115.6 77.9 44.9 19 92.5 28.6 141.6 28.6s96.7-9.6 141.6-28.6c43.3-18.3 82.2-44.5 115.6-77.9s59.6-72.3 77.9-115.6c19-44.9 28.6-92.5 28.6-141.6 0-49.1-9.6-96.7-28.6-141.6zM510 813V195.6c169.7 0.6 307.6 138.8 307.6 308.7S679.8 812.4 510 813z" p-id="6077"></path></svg>