<?xml version="1.0" standalone="no"?><!DOCTYPE svg PUBLIC "-//W3C//DTD SVG 1.1//EN" "http://www.w3.org/Graphics/SVG/1.1/DTD/svg11.dtd"><svg t="1554279507647" class="icon" fill="#fff" style="" viewBox="0 0 1024 1024" version="1.1" xmlns="http://www.w3.org/2000/svg" p-id="20303" xmlns:xlink="http://www.w3.org/1999/xlink" width="200" height="200"><defs><style type="text/css"></style></defs><path d="M512 902.6c-22.5 0-41.6-7.8-57.3-23.5-15.7-15.7-23.5-34.1-23.5-55.4h159.6c0 22.5-7.5 41.3-22.6 56.3-14.9 15-33.7 22.6-56.2 22.6z m240.4-439.4v199.1l80.8 80.8v39.4H190.9V743l80.8-80.8v-199c0-62.6 16-117.1 47.9-163.4 31.9-46.3 76-76.4 132.4-90.1v-28.2c0-16.3 5.6-30.4 16.9-42.3 11.3-11.9 25.7-17.9 43.2-17.8 17.5 0 31.9 6 43.2 17.8 11.3 11.9 16.9 25.9 16.9 42.3v28.2c56.3 13.8 100.5 43.8 132.4 90.1 31.9 46.3 47.9 100.8 47.8 163.4z m78.9-20.7c-6.2-107.7-53.2-193.4-140.9-257.3l56.3-56.3C850.7 209 905.8 313.6 912 442.5h-80.7zM335.5 185.2C246.6 247.8 199 333.6 192.8 442.5H112c6.2-128.9 61.3-233.5 165.3-313.6l58.2 56.3z" p-id="20304"></path></svg>