<?xml version="1.0" standalone="no"?><!DOCTYPE svg PUBLIC "-//W3C//DTD SVG 1.1//EN" "http://www.w3.org/Graphics/SVG/1.1/DTD/svg11.dtd"><svg t="1556534339010" class="icon" style="" viewBox="0 0 1024 1024" version="1.1" xmlns="http://www.w3.org/2000/svg" p-id="11023" xmlns:xlink="http://www.w3.org/1999/xlink" width="200" height="200"><defs><style type="text/css"></style></defs><path d="M903.9872 357.376h-102.4a10.24 10.24 0 0 0-2.2528 0L573.44 193.7408v-76.9024a10.24 10.24 0 0 0-10.24-10.24H460.8a10.24 10.24 0 0 0-10.24 10.24v76.9024l-225.8944 163.84a10.24 10.24 0 0 0-2.2528 0h-102.4a10.24 10.24 0 0 0-10.24 10.24v102.4a10.24 10.24 0 0 0 10.24 10.24h56.0128l89.1904 274.432h-12.1856a10.24 10.24 0 0 0-10.24 10.24v102.4a10.24 10.24 0 0 0 10.24 10.24h102.4a10.24 10.24 0 0 0 10.24-10.24v-35.84h293.888v35.84a10.24 10.24 0 0 0 10.24 10.24h102.4a10.24 10.24 0 0 0 10.24-10.24v-102.4a10.24 10.24 0 0 0-10.24-10.24H758.784l89.1904-274.6368h56.0128a10.24 10.24 0 0 0 10.24-10.24v-102.4a10.24 10.24 0 0 0-10.24-10.24zM471.04 127.0784h81.92v81.92h-81.92zM130.2528 377.856h81.92v81.92h-81.92z m215.04 479.4368h-81.92v-81.92h81.92z m416.768 0h-81.92v-81.92h81.92z m-35.5328-102.4h-56.7296a10.24 10.24 0 0 0-10.24 10.24v35.84h-293.888v-35.84a10.24 10.24 0 0 0-10.24-10.24h-57.856L208.2816 480.256h14.0288a10.24 10.24 0 0 0 10.24-10.24v-79.9744L455.68 227.9424a10.24 10.24 0 0 0 5.12 1.536h102.4a10.24 10.24 0 0 0 5.12-1.536l223.0272 162.0992v79.9744a10.24 10.24 0 0 0 10.24 10.24h14.0288zM893.7472 459.776h-81.92v-81.92h81.92z" fill="#009ff2" p-id="11024"></path></svg>