<?xml version="1.0" standalone="no"?><!DOCTYPE svg PUBLIC "-//W3C//DTD SVG 1.1//EN" "http://www.w3.org/Graphics/SVG/1.1/DTD/svg11.dtd"><svg t="1554284913914" class="icon" style="" viewBox="0 0 1024 1024" version="1.1" xmlns="http://www.w3.org/2000/svg" p-id="22823" xmlns:xlink="http://www.w3.org/1999/xlink" width="200" height="200"><defs><style type="text/css"></style></defs><path d="M63.3 783.7c0 31.6 25.7 57.3 57.3 57.3H902c31.6 0 57.3-25.7 57.3-57.3v-363l-895.9-8.1v371.1z m124.8-258h93.4c14.1 0 25.5 11.4 25.5 25.5s-11.4 25.5-25.5 25.5h-93.4c-14.1 0-25.5-11.4-25.5-25.5s11.4-25.5 25.5-25.5z m0 116.5h646.3c14.1 0 25.5 11.4 25.5 25.5s-11.4 25.5-25.5 25.5H188.1c-14.1 0-25.5-11.4-25.5-25.5s11.4-25.5 25.5-25.5zM901.9 167.9H120.5c-31.6 0-57.3 25.7-57.3 57.3v146.7l895.9 8.1V225.2c0.1-31.6-25.6-57.3-57.2-57.3z" p-id="22824" fill="#c2cbd1"></path></svg>