<?xml version="1.0" standalone="no"?><!DOCTYPE svg PUBLIC "-//W3C//DTD SVG 1.1//EN" "http://www.w3.org/Graphics/SVG/1.1/DTD/svg11.dtd"><svg t="1556160515190" class="icon" style="" fill="#fff" viewBox="0 0 1024 1024" version="1.1" xmlns="http://www.w3.org/2000/svg" p-id="5143" xmlns:xlink="http://www.w3.org/1999/xlink" width="200" height="200"><defs><style type="text/css"></style></defs><path d="M508.78 453.787v528.002h469.333V453.787H508.78z m410.667 469.332H567.45V512.453h352V923.12z m-58.67-234.667H626.12v58.66h234.658v-58.66zM743.448 805.784H626.11v58.666h117.338v-58.666zM565.981 144.727l0.406 42.834 40.781 12.55c103.425 31.625 176.23 107.597 191.659 195.004h58.666C841.65 278.02 747.786 181.805 624.288 143.968 623.65 88.174 572.14 43.121 508.19 43.121c-64.413 0-116.685 45.7-116.685 101.964-133.41 42.53-234.728 153.291-234.728 284.595V629.79s-0.816 0.12-1.288 0.178c-63.886 0.759-115.337 52.27-115.924 116.155 0 0.295-0.117 0.648-0.117 1 0 39.071 19.302 73.447 48.753 94.806 3.868 2.82 7.974 5.16 12.144 7.447 10.205 5.633 21.06 10.332 32.846 12.734 7.153 1.49 15.359 2.34 23.77 2.34h186.905c17.665 49.631 56.788 88.94 106.245 106.774v-64.298a120.129 120.129 0 0 1-41.946-42.474h41.946v-58.666H156.898c-7.511 0-14.55-1.695-21.181-4.284-6.394-2.637-12.259-6.39-17.418-10.906-0.59-0.47-1.295-0.768-1.879-1.295-1.878-1.815-3.052-4.052-4.699-6.102a60.503 60.503 0 0 1-13.565-27.424c1.89 7.068 0.542 0.201 0.31-6.891 0-0.12-0.057-0.178-0.057-0.298 0-0.527-0.295-0.997-0.295-1.526 0-32.326 26.34-58.667 58.724-58.667h58.605V429.677c0-99.854 77.909-191.785 193.775-228.683l40.89-13.023v-42.892c0-23.466 26.582-43.295 57.965-43.295 31.034 0 57.613 19.655 57.91 42.946h-0.002z m294.796 426.39H626.12v58.668h234.658v-58.669z m0 0" fill="" p-id="5144"></path></svg>