<?xml version="1.0" standalone="no"?><!DOCTYPE svg PUBLIC "-//W3C//DTD SVG 1.1//EN" "http://www.w3.org/Graphics/SVG/1.1/DTD/svg11.dtd"><svg t="1554278288634" class="icon" style="" viewBox="0 0 1024 1024" version="1.1" xmlns="http://www.w3.org/2000/svg" p-id="4825" xmlns:xlink="http://www.w3.org/1999/xlink" width="200" height="200"><defs><style type="text/css"></style></defs><path d="M916.5 808.6L547.9 162.4c-9.1-9.1-22.8-13.7-36.4-13.7-13.7 0-27.3 4.6-36.4 18.2L106.4 813.2c-4.6 4.6-4.6 9.1-4.6 18.2 0 27.3 18.2 45.5 45.5 45.5h728.2c27.3 0 45.5-18.2 45.5-45.5 0.1-9.1-4.5-22.8-4.5-22.8z m-405-22.7c-27.3 0-45.5-18.2-45.5-45.5s18.2-45.5 45.5-45.5 45.5 18.2 45.5 45.5-18.2 45.5-45.5 45.5zM557 558.3c0 22.8-22.8 45.5-45.5 45.5-22.8 0-45.5-22.8-45.5-45.5V421.8c0-22.8 22.8-45.5 45.5-45.5 22.8 0 45.5 22.8 45.5 45.5v136.5z" p-id="4826"></path></svg>