<?xml version="1.0" standalone="no"?><!DOCTYPE svg PUBLIC "-//W3C//DTD SVG 1.1//EN" "http://www.w3.org/Graphics/SVG/1.1/DTD/svg11.dtd"><svg t="1554285089060" class="icon" style="" viewBox="0 0 1024 1024" version="1.1" xmlns="http://www.w3.org/2000/svg" p-id="27802" xmlns:xlink="http://www.w3.org/1999/xlink" width="200" height="200"><defs><style type="text/css"></style></defs><path d="M322.29376 101.6064h229.61152c27.38176 0 49.8688-22.31296 49.8688-49.87136v-1.86624C601.77664 22.48704 579.45856 0 551.90784 0h-229.61152c-27.38176 0-49.8688 22.31552-49.8688 49.87136v1.86624c-0.00256 27.55584 22.3104 49.8688 49.86624 49.8688z" fill="#c2cbd1" p-id="27803" data-spm-anchor-id="a313x.7781069.0.i48" class="selected"></path><path d="M479.85664 710.31552H170.97472v-61.81888h324.8768c38.59712-98.09152 133.88544-167.65952 245.66272-167.65952 39.72608 0 77.15072 9.0624 110.94784 24.72704V119.13728c0-37.75232-30.49984-68.24704-68.25216-68.24704h-153.0496v0.98816c0 51.264-41.54368 92.9792-92.97152 92.9792h-223.90272c-51.264 0-92.9792-41.54368-92.9792-92.9792v-0.98816H68.25472C30.49984 50.89024 0 81.38496 0 119.13728v677.23264c0 37.74976 30.49984 68.25216 68.25472 68.25216h438.17216c-18.48576-35.9424-29.04064-76.6592-29.04064-119.85152 0-11.70432 0.9856-23.08096 2.4704-34.45504z" fill="#c2cbd1" p-id="27804" data-spm-anchor-id="a313x.7781069.0.i45" class="selected"></path><path d="M175.3344 313.43616h523.52v63.40096H175.3344zM175.3344 488.58624h272.50944v63.39584H175.3344z" fill="#FFFFFF" p-id="27805"></path><path d="M925.95712 750.35392c-0.43776 25.18272-6.78912 53.0432-17.33376 74.95168-12.81024 26.62144-26.97216 43.96288-49.29024 63.17312-38.6176 33.23904-95.99232 46.48704-145.3824 36.2752-28.35968-5.8624-48.9984-15.76192-73.32352-33.3184-6.2336-4.49792-18.33984-15.93856-26.36544-24.72704-9.25184-10.13504-14.97344-18.66752-22.7584-32.44544-12.26496-21.71136-19.9168-49.82016-21.20704-74.21184-0.37376-7.10656-0.192-14.2336 0.17408-21.33504 0.4608-8.8704 0.54528-8.59648 1.79712-15.8336 1.18528-6.8352 2.88512-13.57056 4.74624-20.24704 0.92672-3.32288 2.01728-6.59712 3.10784-9.8688 0.41472-1.2416 4.41088-11.6992 2.99264-8.3712 17.30304-40.60416 44.46208-69.85728 80.85504-90.51392 35.41248-20.10368 79.32672-25.89696 117.8112-18.03008 42.10432 8.60672 74.496 29.19168 102.71232 61.73184 9.87392 11.38432 23.99744 35.64032 29.34272 49.6 4.10624 10.7264 7.06304 21.85984 9.35936 33.1008 1.32608 6.47936 1.51552 8.94976 1.856 12.29312 0.60416 5.90592 0.80384 11.84512 0.90624 17.77664 0.70912 41.22624 64.71168 41.29536 64 0-2.2272-129.2288-105.50016-235.27936-234.34496-241.74336-63.50848-3.18464-125.3376 22.63296-171.74016 65.088-46.3616 42.41664-73.09824 102.82752-77.39904 165.0176-4.39808 63.62368 20.81792 126.07232 62.53824 173.248 41.77152 47.23712 102.03392 74.37056 164.23168 79.69792 63.66208 5.4528 126.15936-19.03616 173.92896-60.15232 47.90272-41.23136 75.46112-101.2096 81.86624-163.34592 0.60928-5.91872 0.81408-11.86816 0.91648-17.80992 0.71936-41.2928-63.28064-41.22368-63.99744 0z" fill="#c2cbd1" p-id="27806" data-spm-anchor-id="a313x.7781069.0.i51" class="selected"></path><path d="M874.3936 919.68256l94.5792 94.58176c29.20704 29.20704 74.46272-16.04864 45.25568-45.25568l-94.5792-94.58176c-29.2096-29.20704-74.46528 16.04864-45.25568 45.25568z" fill="#c2cbd1" p-id="27807" data-spm-anchor-id="a313x.7781069.0.i52" class="selected"></path></svg>