<?xml version="1.0" standalone="no"?><!DOCTYPE svg PUBLIC "-//W3C//DTD SVG 1.1//EN" "http://www.w3.org/Graphics/SVG/1.1/DTD/svg11.dtd"><svg t="1554279335762" class="icon" style="" viewBox="0 0 1024 1024" version="1.1" xmlns="http://www.w3.org/2000/svg" p-id="15172" xmlns:xlink="http://www.w3.org/1999/xlink" width="200" height="200"><defs><style type="text/css"></style></defs><path d="M512 102.4c-226.011136 0-409.6 183.588864-409.6 409.6s183.588864 409.6 409.6 409.6 409.6-183.588864 409.6-409.6-183.588864-409.6-409.6-409.6z m-29.256704 117.028864h58.513408v351.085568H482.74432V219.428864zM512 804.571136c-161.645568 0-292.571136-130.925568-292.571136-292.571136 0-119.954432 72.411136-223.085568 175.542272-268.434432v65.828864C324.754432 349.623296 277.94432 425.691136 277.94432 512c0 128.731136 105.325568 234.056704 234.056704 234.056704S746.056704 640.731136 746.056704 512c0-86.308864-46.811136-162.376704-117.02784-202.605568v-65.828864C732.16 288.914432 804.571136 392.045568 804.571136 512c0 161.645568-130.925568 292.571136-292.571136 292.571136z" p-id="15173"></path></svg>