<?xml version="1.0" standalone="no"?><!DOCTYPE svg PUBLIC "-//W3C//DTD SVG 1.1//EN" "http://www.w3.org/Graphics/SVG/1.1/DTD/svg11.dtd"><svg t="1554277727452" class="icon" style="" viewBox="0 0 1024 1024" version="1.1" xmlns="http://www.w3.org/2000/svg" p-id="4086" xmlns:xlink="http://www.w3.org/1999/xlink" width="200" height="200"><defs><style type="text/css"></style></defs><path d="M552.699906 973.305738h-81.761054l1.444967-170.3857c1.926623-10.596425 10.596425-21.19285 13.48636-29.380998V505.136406c0-117.403575 23.601129-176.647225-20.229539-260.816557-17.821261-34.197554-51.055503-79.954845-92.839135-88.504233-23.119473-5.298213-29.742239 13.486359-52.018815 14.931327C269.365945 136.067733 195.070555 125.952963 137.873942 95.126999c-0.963311-11.078081-2.408278-25.046096 0-34.197554 5.298213-10.596425 12.523048-5.779868 15.412982-7.706491 33.715898 11.078081 67.913452 22.637817 101.629351 34.197554 101.629351 36.003763 169.904045 46.600188 221.92286 133.298213 17.339605 28.899341 27.454374 57.317027 36.124176 96.210724h1.444967c5.779868-78.509878 64.060207-152.082785 119.932268-183.87206 42.385701-13.968015 85.132643-28.899341 127.036688-42.867357 19.266228-7.224835 94.284102-40.459078 111.142051-35.642521 3.37159 2.889934 9.151458 4.334901 13.486359 19.266228-0.963311 9.151458-1.926623 17.821261-2.889934 26.972718-48.165569 7.706491-149.674506 49.610536-184.353716 74.054563-17.339605-3.37159-29.742239-25.527752-51.055503-20.590781-39.977422 8.669802-65.38476 47.683913-84.289746 78.509878-50.092192 84.289746-25.046096 152.082785-25.046096 273.941674v267.078081c2.408278 8.669802 11.078081 18.784572 13.486359 29.380997-0.120414 56.594544 0.361242 113.429915 0.842898 170.144873z m0 0" p-id="4087"></path></svg>