<?xml version="1.0" standalone="no"?><!DOCTYPE svg PUBLIC "-//W3C//DTD SVG 1.1//EN" "http://www.w3.org/Graphics/SVG/1.1/DTD/svg11.dtd"><svg t="1554285560333" class="icon" style="" viewBox="0 0 1024 1024" version="1.1" xmlns="http://www.w3.org/2000/svg" p-id="63002" xmlns:xlink="http://www.w3.org/1999/xlink" width="200" height="200"><defs><style type="text/css"></style></defs><path d="M941.860571 617.252571h-54.198857a388.388571 388.388571 0 0 1-37.668571 90.185143l50.102857 50.102857a82.066286 82.066286 0 0 1 0 116.150858l-29.257143 29.257142a82.212571 82.212571 0 0 1-116.150857 0l-50.468571-50.468571a388.973714 388.973714 0 0 1-89.892572 37.083429v52.589714A82.139429 82.139429 0 0 1 532.553143 1024h-41.106286a82.139429 82.139429 0 0 1-82.139428-82.139429v-52.516571a387.072 387.072 0 0 1-89.819429-37.083429l-50.468571 50.468572a82.212571 82.212571 0 0 1-116.150858 0l-29.257142-29.257143a81.92 81.92 0 0 1 0-116.004571l50.102857-50.176a385.755429 385.755429 0 0 1-37.668572-90.185143h-54.198857A82.066286 82.066286 0 0 1 0 535.113143v-41.106286a82.139429 82.139429 0 0 1 82.139429-82.139428h53.540571a387.218286 387.218286 0 0 1 36.571429-89.526858l-48.201143-48.201142a81.993143 81.993143 0 0 1 0-116.004572l29.257143-29.257143a82.212571 82.212571 0 0 1 116.150857 0l47.250285 47.250286a387.657143 387.657143 0 0 1 93.037715-38.912v-55.222857A82.066286 82.066286 0 0 1 491.446857 0h41.033143a82.066286 82.066286 0 0 1 82.139429 82.066286v55.222857a387.657143 387.657143 0 0 1 93.037714 38.912l47.323428-47.250286a82.139429 82.139429 0 0 1 116.077715 0l29.257143 29.257143a82.212571 82.212571 0 0 1 0 116.150857l-48.201143 48.201143a387.657143 387.657143 0 0 1 36.571428 89.6h53.540572A82.139429 82.139429 0 0 1 1024 494.006857v41.033143a82.139429 82.139429 0 0 1-82.139429 82.139429zM512 290.011429a225.865143 225.865143 0 1 0 3.364571 0H512z m0 325.924571a102.4 102.4 0 1 1 102.4-102.4 102.4 102.4 0 0 1-102.4 102.4z" fill="#c2cbd1" p-id="63003"></path></svg>