<?xml version="1.0" standalone="no"?><!DOCTYPE svg PUBLIC "-//W3C//DTD SVG 1.1//EN" "http://www.w3.org/Graphics/SVG/1.1/DTD/svg11.dtd"><svg t="1556002569311" class="icon" style="" viewBox="0 0 1040 1024" version="1.1" xmlns="http://www.w3.org/2000/svg" p-id="6119" xmlns:xlink="http://www.w3.org/1999/xlink" width="203.125" height="200"><defs><style type="text/css"></style></defs><path d="M470.08 873.032l236.82-339.408h-109.524l36.7-259.548-255.168 339.408h127.304l-36.132 259.548zM947.676 170.9h-91.708V116c0-34.98-28.684-63.428-63.952-63.428h-142.212c-35.272 0-63.956 28.448-63.956 63.428v54.896h-123.216V116c0-34.98-28.684-63.428-63.956-63.428H256.468c-35.272 0-63.956 28.448-63.956 63.428v54.896H100.28c-35.268 0-63.956 28.448-63.956 63.428V916c0 34.976 28.684 63.424 63.956 63.424h847.396c35.268 0 63.956-28.448 63.956-63.456V234.328c0-34.984-28.688-63.428-63.956-63.428zM657.804 124h126.208v46.896h-126.208V124z m-393.336 0h126.208v46.896H264.468V124z m671.176 772H112.28V254.328h823.396L935.644 896z" fill="" p-id="6120"></path></svg>