<?xml version="1.0" standalone="no"?><!DOCTYPE svg PUBLIC "-//W3C//DTD SVG 1.1//EN" "http://www.w3.org/Graphics/SVG/1.1/DTD/svg11.dtd"><svg t="1556002531036" class="icon" style="" viewBox="0 0 1024 1024" version="1.1" xmlns="http://www.w3.org/2000/svg" p-id="5890" xmlns:xlink="http://www.w3.org/1999/xlink" width="200" height="200"><defs><style type="text/css"></style></defs><path d="M334.78672498 790.25818737c-77.54670763-47.72911104-122.02277888-118.14800498-122.02277888-193.20079247 0-75.05511651 44.47607125-145.47633835 122.02277888-193.20544939 13.70608185-8.43648227 17.97787989-26.3852544 9.54139761-40.09133624-8.43531719-13.70608185-26.38641835-17.97904384-40.09133624-9.5425627-45.10246229 27.76145123-82.53338283 63.76611157-108.24567581 104.12407125-27.15485298 42.62251293-41.50828259 90.59030471-41.50828259 138.71527708 0 48.12497123 14.35342962 96.09043513 41.50828259 138.71178411 25.71229184 40.35679459 63.14321351 76.36145493 108.24567581 104.12174222 4.76196637 2.93169493 10.03738795 4.3288485 15.24644408 4.3288485 9.78357134 0 19.34010482-4.92613291 24.84489216-13.87024726C352.76460487 816.64227782 348.49164174 798.69350569 334.78672498 790.25818737zM229.76731136 873.33646107c-105.36171634-69.53170034-165.78979385-170.23856526-165.78979385-276.29885895 0-106.03584285 60.40944867-206.71476509 165.73740032-276.22317966 13.43247246-8.86377813 17.13609501-26.93945913 8.27115179-40.37193045-8.86377813-13.43247246-26.93945913-17.13725895-40.37193045-8.27115179C75.64841074 352.65905663 5.6964005 471.06786303 5.6964005 597.03760212c0 125.9941888 69.96947513 244.42977507 191.9678043 324.94194233 4.94243271 3.26235477 10.51358435 4.82250979 16.02302862 4.8225098 9.46339043 0 18.74631453-4.60362297 24.34890297-13.09249764C246.90224128 900.2759202 243.19861874 882.20140429 229.76731136 873.33646107zM826.77822805 272.17134022c-13.43130738-8.86494208-31.50815232-5.16131954-40.37193045 8.27115179-8.86377813 13.43247246-5.16131954 31.50815232 8.27115179 40.37193045 105.33028067 69.50957853 165.7408933 170.18850077 165.7408933 276.22317966 0 106.05912974-60.42924146 206.76599353-165.79212288 276.29885895-13.43247246 8.86377813-17.13492992 26.94062307-8.27115179 40.37309554 5.60375239 8.49003975 14.88434745 13.09249763 24.34890297 13.09249764 5.50828032 0 11.08175986-1.56015502 16.02419256-4.8225098 122.00065707-80.51100331 191.97129728-198.94891747 191.97129728-324.94194233C1018.69946083 471.06902811 948.74744946 352.66022057 826.77822805 272.17134022zM828.40474851 735.76917901c27.15368903-42.62018503 41.50711865-90.58681173 41.50711866-138.71178411 0-48.12613632-14.35342962-96.09276302-41.50711866-138.71527708-25.71229184-40.35795968-63.14321351-76.36262002-108.24800369-104.12407125-13.70724579-8.43531719-31.65485397-4.16351915-40.09133625 9.5425627-8.43648227 13.70491677-4.16351915 31.65485397 9.54139762 40.09133624 77.54670763 47.72911104 122.02394283 118.14916893 122.02394282 193.20544939 0 75.05278749-44.47607125 145.47168142-122.02394282 193.19962852-13.70491677 8.43648227-17.97787989 26.3852544-9.54139762 40.09250019 5.50478734 8.94411435 15.06015687 13.87024725 24.84372821 13.87024726 5.21022009 0 10.48564167-1.39715357 15.24644409-4.3288485C765.25920597 812.13063508 802.69129273 776.12713869 828.40474851 735.76917901zM574.72464896 604.47279103c27.4470912-19.51358521 45.3830565-51.54799957 45.3830565-87.69004658 0-59.31035421-48.30194461-107.56339826-107.67284224-107.56339826-59.36973369 0-107.67167829 48.25188011-107.67167829 107.56339826 0 36.06287474 17.85912206 68.03674567 45.20491918 87.56197376-56.74774073 24.03919986-96.61669603 79.91139101-96.61669604 144.84063346 0 2.69301419 0.06985728 5.41862912 0.20724508 8.10000042l1.42160442 27.64385736 314.45164373 0 1.40879758-27.65782927c0.13622272-2.68370034 0.20608-5.40465721 0.20608-8.08602965C671.04561493 684.37021012 631.31404629 628.58301211 574.72464896 604.47279103zM512.43370041 467.50046321c27.23519033 0 49.39288917 22.10763435 49.39288917 49.28228124 0 27.17348181-22.15769885 49.28111616-49.39288917 49.28111616-27.23402525 0-49.39056014-22.10763435-49.39056014-49.28111616C463.04313913 489.60926263 485.19967403 467.50046321 512.43370041 467.50046321zM414.25219129 726.64925638c10.37619769-43.85317319 50.35226795-76.61527154 97.94632135-76.61527154s87.57128761 32.76209835 97.94632135 76.61527154L414.25219129 726.64925638z" p-id="5891"></path></svg>