<?xml version="1.0" standalone="no"?><!DOCTYPE svg PUBLIC "-//W3C//DTD SVG 1.1//EN" "http://www.w3.org/Graphics/SVG/1.1/DTD/svg11.dtd"><svg t="1556002513560" class="icon" style="" viewBox="0 0 1024 1024" version="1.1" xmlns="http://www.w3.org/2000/svg" p-id="5660" xmlns:xlink="http://www.w3.org/1999/xlink" width="200" height="200"><defs><style type="text/css"></style></defs><path d="M858.3 311.2C894 372.5 912 439.4 912 512s-17.9 139.5-53.7 200.8C822.5 774 774 822.6 712.8 858.3S584.6 912 512 912s-139.5-17.9-200.8-53.7c-61.2-35.7-109.7-84.2-145.6-145.6C129.9 651.5 112 584.6 112 512c0-72.5 17.9-139.4 53.7-200.8 35.7-61.2 84.2-109.7 145.6-145.6C372.5 130 439.4 112 512 112c72.5 0 139.4 17.9 200.8 53.7C774 201.5 822.5 250 858.3 311.2zM512 795.4V228.8c-51.4 0-98.8 12.7-142.2 38S292 326.5 266.7 369.9c-25.3 43.4-38 90.8-38 142.2 0 51.4 12.7 98.8 38 142.2 25.3 43.4 59.7 77.8 103.1 103.1 43.4 25.2 90.8 38 142.2 38z" p-id="5661"></path></svg>