<?xml version="1.0" standalone="no"?><!DOCTYPE svg PUBLIC "-//W3C//DTD SVG 1.1//EN" "http://www.w3.org/Graphics/SVG/1.1/DTD/svg11.dtd"><svg t="1555757178806" class="icon" style="" viewBox="0 0 1024 1024" version="1.1" xmlns="http://www.w3.org/2000/svg" p-id="2659" xmlns:xlink="http://www.w3.org/1999/xlink" width="200" height="200"><defs><style type="text/css"></style></defs><path d="M702.60224 325.38112H509.91616l-96.35328 216.91904h83.18976l-59.10016 214.272L678.51776 498.176h-88.33024l112.41472-172.79488zM340.9664 967.68H445.44v56.32H340.9664zM695.65952 967.68h104.4736v56.32h-104.4736z" p-id="2660"></path><path d="M775.9104 0H212.48V796.32384c0 70.72256 57.30304 127.83616 128.08704 127.83616H724.48c14.14656 0 25.6-11.45856 25.6-25.6s-11.45344-25.6-25.6-25.6H340.56704c-42.54208 0-76.88704-34.23232-76.88704-76.63616V193.70496h495.49312a25.6 25.6 0 1 0 0-51.2H263.68V51.2h512.2304c42.34752 0 76.5696 34.21696 76.5696 76.66688V898.56c0 14.14144 11.45856 25.6 25.6 25.6s25.6-11.45856 25.6-25.6V127.86688C903.68 57.13408 846.53568 0 775.9104 0z" p-id="2661"></path></svg>