<?xml version="1.0" standalone="no"?><!DOCTYPE svg PUBLIC "-//W3C//DTD SVG 1.1//EN" "http://www.w3.org/Graphics/SVG/1.1/DTD/svg11.dtd"><svg t="1556005018120" class="icon" style="" viewBox="0 0 1024 1024" version="1.1" xmlns="http://www.w3.org/2000/svg" p-id="6228" xmlns:xlink="http://www.w3.org/1999/xlink" width="200" height="200"><defs><style type="text/css"></style></defs><path d="M897 458.8V256h34c16.6 0 30-13.4 30-30V94c0-16.6-13.4-30-30-30H799c-16.6 0-30 13.4-30 30v34H257V94c0-16.6-13.4-30-30-30H95c-16.6 0-30 13.4-30 30v132c0 16.6 13.4 30 30 30h34v512H95c-16.6 0-30 13.4-30 30v132c0 16.6 13.4 30 30 30h132c16.6 0 30-13.4 30-30v-34h512v34c0 16.6 13.4 30 30 30h132c16.6 0 30-13.4 30-30V798c0-16.6-13.4-30-30-30h-34V458.8zM810 105h110v110H810V105z m-126.3 87L193 682.7V533.3L534.3 192h149.4zM106 215V105h110v110H106z m121 41c16.6 0 30-13.4 30-30v-34h186.7L193 442.8V256h34z m-11 663H106V809h110v110z m41-87v-34c0-16.6-13.4-30-30-30h-28.7L769 197.3V226c0 16.6 13.4 30 30 30h34v17.5L274.5 832H257z m108 0l468-468v150.8L515.8 832H365z m555-23v110H810V809h110z m-121-41c-16.6 0-30 13.4-30 30v34H608.6L833 607.6V768h-34z" p-id="6229"></path></svg>