<?xml version="1.0" encoding="utf-8"?>
<!-- Generator: Adobe Illustrator 18.0.0, SVG Export Plug-In . SVG Version: 6.00 Build 0)  -->
<!DOCTYPE svg PUBLIC "-//W3C//DTD SVG 1.1//EN" "http://www.w3.org/Graphics/SVG/1.1/DTD/svg11.dtd">
<svg version="1.1" id="图层_1" xmlns="http://www.w3.org/2000/svg" xmlns:xlink="http://www.w3.org/1999/xlink" x="0px" y="0px"
	 viewBox="0 0 200 200" enable-background="new 0 0 200 200" xml:space="preserve">
<path d="M62.3,46.7c4.6-0.3,6-4.2,10.8-3.1c8.7,1.8,15.6,11.3,19.3,18.4c0.9,1.8,1.7,3.5,2.3,5.2c1.6-0.1,3.1-0.1,4.7,0
	c-1.3-3.6-2.8-6.8-4.7-10.1c-10.8-18-25-20.2-46.1-27.7c-7-2.4-14.1-4.8-21.1-7.1c-0.6,0.4-2.1-0.6-3.2,1.6c-0.5,1.9-0.2,4.8,0,7.1
	C36.2,37.4,51.6,39.5,62.3,46.7z"/>
<path d="M176.9,22.6c-3.5-1-19.1,5.9-23.1,7.4c-8.7,2.9-17.6,6-26.4,8.9c-9.3,5.3-18.9,16.1-23,28.6c1.3,0.1,2.5,0.3,3.7,0.5
	c0.1-0.1,0.2-0.1,0.3-0.2c0.2-0.1,0.3-0.2,0.5-0.3c0.9-2.6,2.2-5.2,3.7-7.8c3.9-6.4,9.2-14.5,17.5-16.3c4.4-1,7,3.6,10.6,4.3
	c7.2-5.1,28.3-13.8,38.3-15.4c0.2-1.9,0.4-3.7,0.6-5.6C178.8,23.5,177.6,23.2,176.9,22.6z"/>
</svg>
