<?xml version="1.0" standalone="no"?><!DOCTYPE svg PUBLIC "-//W3C//DTD SVG 1.1//EN" "http://www.w3.org/Graphics/SVG/1.1/DTD/svg11.dtd"><svg t="1554284806728" class="icon" style="" viewBox="0 0 2048 1024" version="1.1" xmlns="http://www.w3.org/2000/svg" p-id="21029" xmlns:xlink="http://www.w3.org/1999/xlink" width="400" height="200"><defs><style type="text/css"></style></defs><path d="M1295.57774 687.69458c-70.679174 65.574798-167.364295 106.111781-273.869832 106.111781-106.521793 0-203.23762-40.573108-273.878864-106.111781l-64.411592 149.31655-0.79293 2.044641c-5.848539 17.139216-2.731004 34.778756 8.765583 49.781214 18.291584 23.784298 57.282444 39.167869 99.372776 39.167869h461.87741c35.983504 0 81.366574-12.898213 101.715443-41.698382 10.830092-15.267973 12.797065-32.795527 5.633598-49.293536l-64.411592-149.318356z m0 0" p-id="21030"></path><path d="M775.126439 647.751842a0.196878 0.196878 0 0 1 0.124629 0.086699 365.100171 365.100171 0 0 0 11.778357 11.034195c0.036124 0 0.104761 0.070443 0.140885 0.130047a341.9625 341.9625 0 0 0 12.390666 10.523035c0.055993 0.036124 0.106567 0.08128 0.140885 0.135466 4.206685 3.390274 8.489231 6.677593 12.853058 9.861959a1.524449 1.524449 0 0 0 0.316088 0.21494 310.610142 310.610142 0 0 0 13.134828 9.152114c0.175203 0.11921 0.350407 0.225777 0.51116 0.332344a323.457781 323.457781 0 0 0 13.360605 8.380859c0.265514 0.157141 0.527416 0.335957 0.827249 0.51116a384.052832 384.052832 0 0 0 13.375055 7.49581c0.462392 0.225777 0.863373 0.476842 1.305897 0.722488a326.383857 326.383857 0 0 0 13.340737 6.652306c0.581603 0.303445 1.165012 0.597859 1.782738 0.848924 4.327702 2.080765 8.725846 3.961039 13.183596 5.825057 0.773062 0.355825 1.531674 0.68817 2.324605 1.004258a306.714127 306.714127 0 0 0 12.93795 4.981554c1.018708 0.355825 1.974198 0.758612 2.994711 1.090956 4.166948 1.499162 8.393502 2.853827 12.65618 4.177786 1.215586 0.379306 2.373372 0.83628 3.588958 1.175849 4.107343 1.226423 8.238167 2.337248 12.396084 3.430011 1.405239 0.350407 2.776159 0.773062 4.201267 1.125274 3.982714 1.004258 8.048514 1.882081 12.13057 2.731004 1.585861 0.350407 3.153659 0.722488 4.734101 1.034964 3.948396 0.778481 7.923885 1.46665 11.921049 2.05909 1.761064 0.305251 3.484197 0.671914 5.245261 0.921172 3.941171 0.574378 7.956397 1.056638 11.919242 1.477487 1.84415 0.211328 3.661207 0.456974 5.489101 0.646627 4.121793 0.408206 8.29416 0.655658 12.466527 0.913947 1.741196 0.135466 3.433623 0.28177 5.191075 0.426268 5.899113 0.22939 11.83435 0.397368 17.812936 0.397368 5.99123 0 11.919242-0.167978 17.838223-0.397368 1.706877-0.144498 3.428205-0.290801 5.122439-0.426268 4.18501-0.258289 8.342928-0.505741 12.511682-0.913947 1.867631-0.189653 3.735262-0.451555 5.604699-0.646627 3.959233-0.45878 7.90221-0.90311 11.807256-1.477487 1.782739-0.249258 3.54019-0.615921 5.317511-0.921172 3.980908-0.628564 7.927497-1.28061 11.828931-2.05909 1.636435-0.312476 3.187977-0.704426 4.824412-1.034964a382.755966 382.755966 0 0 0 12.076383-2.731004c1.410657-0.372081 2.817702-0.774868 4.233779-1.161399 4.166948-1.074701 8.304997-2.16927 12.370797-3.395692 1.195717-0.339569 2.395047-0.796543 3.610633-1.175849a333.74962 333.74962 0 0 0 12.64173-4.177786c1.018708-0.3486 2.003097-0.735131 2.973037-1.090957 4.352989-1.57683 8.67166-3.24397 12.954206-5.001421 0.803768-0.326926 1.596698-0.662883 2.378791-1.018708a329.474298 329.474298 0 0 0 13.170952-5.788933c0.612308-0.299832 1.213779-0.581603 1.80622-0.913947a259.029933 259.029933 0 0 0 13.295581-6.643276 12.715785 12.715785 0 0 0 1.305897-0.717069c4.517355-2.35531 9.00581-4.907498 13.375055-7.465105 0.285383-0.189653 0.561734-0.352213 0.843504-0.527416 4.533611-2.691267 8.996779-5.508969 13.380474-8.435045a1.087344 1.087344 0 0 0 0.440718-0.276351 318.351599 318.351599 0 0 0 13.255844-9.195464 0.648433 0.648433 0 0 1 0.175204-0.137272c81.08661-59.345147 133.423625-152.291394 133.423625-256.667398 0-178.875332-153.682183-324.425915-342.560358-324.425915C832.806251 98.431736 679.138518 243.980513 679.138518 422.855845c-0.005419 87.22595 36.615681 166.484667 95.987921 224.895997z m-34.587297-224.895997c0-146.798681 126.131918-266.258423 281.168766-266.258424s281.168765 119.459743 281.168765 266.258424c0 77.54642-35.219473 147.468788-91.308007 196.140984a264.876666 264.876666 0 0 1-18.802744 14.98259c-0.372081 0.251065-0.722488 0.547284-1.090957 0.791124a262.980135 262.980135 0 0 1-19.505364 12.81874c-0.617727 0.388337-1.244485 0.809186-1.862212 1.161399a273.571806 273.571806 0 0 1-20.207983 10.826479c-0.829055 0.438911-1.672559 0.857954-2.485358 1.248098-6.82751 3.27287-13.821191 6.229651-21.00272 8.993167-0.913947 0.370275-1.882081 0.68817-2.850215 1.058444a281.224758 281.224758 0 0 1-21.831774 7.129148c-0.968134 0.265514-1.968779 0.529222-2.951363 0.798349a318.201683 318.201683 0 0 1-22.855901 5.275967c-0.877823 0.135466-1.775514 0.261902-2.635274 0.437106a292.752051 292.752051 0 0 1-24.140123 3.292738 31.066975 31.066975 0 0 1-1.79177 0.111985c-8.525356 0.753194-17.110317 1.193911-25.843388 1.193911-8.731265 0-17.341513-0.440718-25.86145-1.193911-0.587021-0.018062-1.174043-0.055993-1.755646-0.111985a280.973693 280.973693 0 0 1-24.120254-3.274676c-0.877823-0.195072-1.775514-0.316088-2.638887-0.456974a325.164659 325.164659 0 0 1-22.870351-5.266936c-0.968134-0.261902-1.954329-0.505741-2.935106-0.812798-7.412725-2.071734-14.702626-4.483037-21.831775-7.089412-0.96994-0.375694-1.918205-0.702619-2.850214-1.069282a286.383321 286.383321 0 0 1-20.982852-8.996779c-0.827249-0.3775-1.652691-0.812799-2.483552-1.215586a310.45842 310.45842 0 0 1-20.207983-10.808417c-0.617727-0.384725-1.215586-0.79293-1.833313-1.166818-6.722749-4.0658-13.235976-8.270679-19.539682-12.847639-0.332344-0.231196-0.648433-0.491292-1.004258-0.702619-6.491553-4.786482-12.807902-9.735523-18.867768-14.988009-56.130076-48.719158-91.389286-118.641525-91.389287-196.258388z m0 0" p-id="21031"></path><path d="M1021.707908 616.256794c70.471459 0 127.770159-54.291345 127.770158-121.031154 0-66.716328-57.2987-120.989611-127.770158-120.989611-70.46604 0-127.818926 54.273282-127.818927 120.989611 0 66.739809 57.35108 121.031154 127.818927 121.031154z m0-207.148086c50.158714 0 90.963018 38.645872 90.963018 86.122351 0 47.510797-40.804304 86.097063-90.963018 86.097063-50.153296 0-90.955793-38.58446-90.955794-86.097063-0.001806-47.476479 40.802498-86.12235 90.955794-86.122351z m0 0" p-id="21032"></path><path d="M1021.707908 552.533371c26.636318 0 48.220641-20.460854 48.22064-45.654003 0-25.279848-21.584323-45.69374-48.22064-45.69374-26.629094 0-48.249541 20.415699-48.249541 45.69374-0.007225 25.193149 21.615028 45.654003 48.249541 45.654003z m0 0" p-id="21033"></path></svg>