<?xml version="1.0" standalone="no"?><!DOCTYPE svg PUBLIC "-//W3C//DTD SVG 1.1//EN" "http://www.w3.org/Graphics/SVG/1.1/DTD/svg11.dtd"><svg t="1556002360067" class="icon" style="" viewBox="0 0 1024 1024" version="1.1" xmlns="http://www.w3.org/2000/svg" p-id="5315" xmlns:xlink="http://www.w3.org/1999/xlink" width="200" height="200"><defs><style type="text/css"></style></defs><path d="M557.568 1024h-87.04l1.536-181.248c2.048-11.264 11.264-22.528 14.336-31.232V480.768c0-124.928 25.088-187.904-21.504-277.504-18.944-36.352-54.272-84.992-98.816-94.208-24.576-5.632-31.744 14.336-55.296 15.872-54.784-36.864-133.632-47.616-194.56-80.384-1.024-11.776-2.56-26.624 0-36.352C121.856-3.072 129.536 2.048 132.608 0 168.448 11.776 204.8 24.064 240.64 36.352c108.032 38.4 180.736 49.664 236.032 141.824 18.432 30.72 29.184 60.928 38.4 102.4h1.536c6.144-83.456 68.096-161.792 127.488-195.584 45.056-14.848 90.624-30.72 135.168-45.568 20.48-7.68 100.352-43.008 118.272-37.888 3.584 3.072 9.728 4.608 14.336 20.48-1.024 9.728-2.048 18.944-3.072 28.672-51.2 8.192-159.232 52.736-196.096 78.848-18.432-3.584-31.744-27.136-54.272-22.016-42.496 9.216-69.632 50.688-89.6 83.456-53.248 89.6-26.624 161.792-26.624 291.328v329.216c2.56 9.216 11.776 19.968 14.336 31.232 0 60.416 0.512 120.832 1.024 181.248z" p-id="5316"></path></svg>