<?xml version="1.0" standalone="no"?><!DOCTYPE svg PUBLIC "-//W3C//DTD SVG 1.1//EN" "http://www.w3.org/Graphics/SVG/1.1/DTD/svg11.dtd"><svg t="1553938446623" class="icon" style="" viewBox="0 0 1024 1024" version="1.1" xmlns="http://www.w3.org/2000/svg" p-id="25805" xmlns:xlink="http://www.w3.org/1999/xlink" width="200" height="200"><defs><style type="text/css"></style></defs><path d="M761.58887 638.664348c-13.445565-8.058435-29.606957-5.342609-37.709913 8.102956-8.058435 13.445565-5.342609 29.606957 8.102956 37.665392a370.643478 370.643478 0 0 1 140.02087 175.059478c10.774261 24.219826 13.445565 51.155478 0 75.375304-16.161391 21.548522-48.484174 34.994087-75.419826 34.994087H247.318261c-26.935652 0-59.258435-13.445565-75.419826-34.994087-16.161391-21.548522-10.774261-48.484174 0-75.375304a373.359304 373.359304 0 0 1 350.029913-239.660522c169.627826 0 309.648696-140.02087 309.648695-309.648695A308.001391 308.001391 0 0 0 521.928348 0.534261c-172.29913 0-309.648696 140.02087-309.648696 309.648696 0 121.143652 70.032696 226.170435 172.299131 277.370434-118.427826 40.336696-218.067478 129.202087-266.507131 253.061566-16.161391 40.381217-24.264348 94.252522 0 129.246608 29.96313 46.658783 80.762435 53.871304 123.859478 53.871305h551.980522c45.768348 0 99.417043-7.479652 129.246609-53.871305 29.829565-46.34713 16.161391-88.865391 0-129.246608-32.322783-83.478261-88.865391-150.79513-161.569391-201.950609zM266.150957 310.182957c0-140.02087 115.756522-255.821913 255.777391-255.821914s255.821913 115.801043 255.821913 255.821914c0 140.02087-115.756522 255.777391-255.821913 255.777391-140.02087 0-255.777391-115.756522-255.777391-255.777391z" p-id="25806"></path></svg>