<?xml version="1.0" standalone="no"?><!DOCTYPE svg PUBLIC "-//W3C//DTD SVG 1.1//EN" "http://www.w3.org/Graphics/SVG/1.1/DTD/svg11.dtd"><svg t="1555757290105" class="icon" style="" viewBox="0 0 1024 1024" version="1.1" xmlns="http://www.w3.org/2000/svg" p-id="8663" xmlns:xlink="http://www.w3.org/1999/xlink" width="200" height="200"><defs><style type="text/css"></style></defs><path d="M172.8 925.867c-4.267 21.333-21.333 36.266-38.4 34.133-17.067-2.133-29.867-23.467-25.6-44.8L247.467 72.533c4.266-21.333 21.333-36.266 38.4-34.133 17.066 2.133 29.866 23.467 25.6 44.8L172.8 925.867zM552.533 288c0 10.667-12.8 21.333-29.866 21.333-17.067 0-29.867-8.533-29.867-21.333V93.867c0-10.667 12.8-21.334 29.867-21.334 17.066 0 29.866 8.534 29.866 21.334V288z m0 320c0 12.8-12.8 23.467-29.866 23.467C505.6 631.467 492.8 620.8 492.8 608V390.4c0-12.8 12.8-23.467 29.867-23.467 17.066 0 29.866 10.667 29.866 23.467V608z m0 328.533c0 12.8-12.8 23.467-29.866 23.467-17.067 0-29.867-10.667-29.867-23.467v-217.6c0-12.8 12.8-23.466 29.867-23.466 17.066 0 29.866 10.666 29.866 23.466v217.6z m300.8-8.533c4.267 21.333 21.334 36.267 38.4 34.133 17.067-2.133 29.867-23.466 25.6-44.8L778.667 74.667c-4.267-21.334-21.334-36.267-38.4-34.134-19.2 4.267-29.867 23.467-25.6 44.8L853.333 928z" p-id="8664"></path></svg>