<?xml version="1.0" standalone="no"?><!DOCTYPE svg PUBLIC "-//W3C//DTD SVG 1.1//EN" "http://www.w3.org/Graphics/SVG/1.1/DTD/svg11.dtd">
<svg t="1537503559773" class="icon" style="" viewBox="0 0 1024 1024" version="1.1" xmlns="http://www.w3.org/2000/svg" p-id="3096"
     width="200" height="200"><defs><style type="text/css"></style></defs><path d="M866.24285732 416.6C866.24285732 220.91428583 707.61428545 62.28571396 511.92857127 62.28571396S157.61428613 220.91428583 157.61428613 416.6c0 56.45714326 13.54285723 109.62857109 37.0285708 156.9999999h-1.3714286s21.11428564 38.5999998 53.42857206 91.51428604l0.25714248 0.59999941c10.31428566 16.91428535 22.05714285 35.48571415 34.34285742 54.51428584l0.88571427 1.4000001a1936.97142891 1936.97142891 0 0 0 53.60000009 78.68571416l2.57142832 3.57142851a1126.57142901 1126.57142901 0 0 0 55.19999971 70.62857139c2.14285693 2.48571387 4.25714326 4.97142862 6.40000019 7.4000004a627.71428564 627.71428564 0 0 0 17.45714269 19.34285713h0.02857147c17.65714307 18.65714326 35.08571426 34.9999998 51.6285712 46.71428554a73.68571406 73.68571406 0 0 0 85.74285762 0c16.54285693-11.71428576 33.97142901-28.05714315 51.5999997-46.71428554h0.05714296l0.39999991-0.45714289a635.77142842 635.77142842 0 0 0 23.31428554-26.14285721 1138.3999998 1138.3999998 0 0 0 55.48571455-70.99999981l2.22857139-3.08571416a1929.62857148 1929.62857148 0 0 0 53.77142901-78.94285752l0.91428574-1.4000001a2508.28571425 2508.28571425 0 0 0 34.31428506-54.48571435c0.14285742-0.22857099 0.17142891-0.42857138 0.28571484-0.6285709a2433.22857158 2433.22857158 0 0 0 53.3999997-91.51428604h-1.3714286a352.28571417 352.28571417 0 0 0 37.02857167-156.9999999zM511.92857127 266.91428604a149.68571396 149.68571396 0 1 1 0 299.37142792 149.68571396 149.68571396 0 0 1 0-299.37142792z" fill="#2b9afe" p-id="3097"></path></svg>